<svg xmlns="http://www.w3.org/2000/svg" viewBox="0 0 1569.46 1260.04"><defs><style>.a{fill:#fff;stroke:#fff;stroke-miterlimit:10;stroke-width:10px;}</style></defs><line class="a" x1="939.46" y1="317.54" x2="939.46" y2="630.04"/><path class="a" d="M1155.13,696.51c-.09-3-.13-6-.13-9,0-172.59,139.91-312.5,312.5-312.5" transform="translate(-215.54 -369.96)"/><polyline class="a" points="1564.46 630.04 1564.46 5.04 1251.96 5.04"/><line class="a" x1="1564.46" y1="942.54" x2="1564.46" y2="630.04"/><polyline class="a" points="939.46 630.04 939.46 1255.04 1251.96 1255.04"/><path class="a" d="M1780,1312.5c0,172.59-139.91,312.5-312.5,312.5" transform="translate(-215.54 -369.96)"/><line class="a" x1="630" y1="317.5" x2="630" y2="630"/><path class="a" d="M845.42,696.46q.12-4.49.12-9C845.54,514.87,705.63,375,533,375" transform="translate(-215.54 -369.96)"/><polyline class="a" points="5 630 5 5 317.5 5"/><line class="a" x1="5" y1="942.5" x2="5" y2="630"/><polyline class="a" points="630 630 630 1255 317.5 1255"/><path class="a" d="M220.54,1312.46c0,172.59,139.91,312.5,312.5,312.5" transform="translate(-215.54 -369.96)"/></svg>